<?xml version="1.0" encoding="utf-8"?>
<!-- Generator: Adobe Illustrator 22.1.0, SVG Export Plug-In . SVG Version: 6.00 Build 0)  -->
<svg version="1.1" id="Camada_1" xmlns="http://www.w3.org/2000/svg" xmlns:xlink="http://www.w3.org/1999/xlink" x="0px" y="0px"
	 viewBox="0 0 448 512" style="enable-background:new 0 0 448 512;" xml:space="preserve">
<style type="text/css">
	.st0{fill:#F8F9FA;}
</style>
<path class="st0" d="M349,306.8V142.7c0-6.5-6-11.7-13.4-11.7h-183C123,131,99,152,99,177.9v156.3c0,25.9,24,46.9,53.6,46.9h183
	c7.4,0,13.4-5.2,13.4-11.7v-7.8c0-3.7-2-7-5-9.1c-2.3-7.5-2.3-29,0-36.5C347,313.8,349,310.4,349,306.8L349,306.8z M170.4,196.4
	c0-1.6,1.5-2.9,3.3-2.9h118.3c1.8,0,3.3,1.3,3.3,2.9v9.8c0,1.6-1.5,2.9-3.3,2.9H173.8c-1.8,0-3.3-1.3-3.3-2.9V196.4z M170.4,227.7
	c0-1.6,1.5-2.9,3.3-2.9h118.3c1.8,0,3.3,1.3,3.3,2.9v9.8c0,1.6-1.5,2.9-3.3,2.9H173.8c-1.8,0-3.3-1.3-3.3-2.9V227.7z M311.8,349.8
	H152.6c-9.9,0-17.9-7-17.9-15.6c0-8.6,8-15.6,17.9-15.6h159.3C310.8,326.8,310.8,341.4,311.8,349.8z"/>
</svg>
