<?xml version="1.0" encoding="utf-8"?>
<!-- Generator: Adobe Illustrator 22.1.0, SVG Export Plug-In . SVG Version: 6.00 Build 0)  -->
<svg version="1.1" id="Camada_1" xmlns="http://www.w3.org/2000/svg" xmlns:xlink="http://www.w3.org/1999/xlink" x="0px" y="0px"
	 viewBox="0 0 448 512" style="enable-background:new 0 0 448 512;" xml:space="preserve">
<style type="text/css">
	.st0{fill:#F8F9FA;}
</style>
<path class="st0" d="M207.9,380.8l-23.8-8.6c-2.5-0.9-3.9-4.2-3.2-7.3l53.3-229.6c0.7-3.1,3.3-4.9,5.8-4l23.8,8.6
	c2.5,0.9,3.9,4.2,3.2,7.3l-53.3,229.6C213,379.9,210.4,381.7,207.9,380.8z M163.4,326l17-22.7c1.8-2.4,1.7-6.2-0.3-8.4L144.7,256
	l35.4-38.9c2-2.2,2.1-6,0.3-8.4l-17-22.7c-1.8-2.3-4.7-2.5-6.6-0.2l-56.3,65.9c-2,2.3-2,6.3,0,8.5l56.3,66
	C158.7,328.5,161.7,328.4,163.4,326L163.4,326z M291.2,326.3l56.3-66c2-2.3,2-6.3,0-8.5l-56.3-66c-1.9-2.2-4.8-2.1-6.6,0.2l-17,22.7
	c-1.8,2.4-1.7,6.2,0.3,8.4l35.4,39l-35.4,38.9c-2,2.2-2.1,6-0.3,8.4l17,22.7C286.3,328.4,289.3,328.5,291.2,326.3L291.2,326.3z"/>
</svg>
